#!OML:ASF X:\für Bonn\!DataBase\2005_08_10_Bjorn_Final\c3d\bjorn.ASF
:FULLY-SPECIFIED
:DEGREES
595
root 0.694069 1.7219 18.137 -440.752 -175.451 -717.416
lowerback -11.3822 2.74484 -1.94225
upperback -0.690553 3.8515 -4.79971
thorax 5.86683 1.76165 -3.34345
lowerneck -12.8676 -7.79633 -6.77847
upperneck 6.13542 -10.9314 11.1693
head 4.94009 -5.13708 3.59903
rclavicle 2.8625e-014 -2.79789e-014
rhumerus -238.13 -208.227 99.9647
rradius 129.311
rwrist -6.58323
rhand -18.177 15.0521
rfingers 7.12502
rthumb 8.09948 -14.7727
lclavicle 2.8625e-014 -2.79789e-014
lhumerus -38.6857 -57.8454 72.7019
lradius 114.754
lwrist 8.11316
lhand -21.8891 -377.009
lfingers 7.12502
lthumb 4.51585 12.9226
rfemur -21.798 -17.3446 13.6761
rtibia 31.248
rfoot 12.0883 8.43564
rtoes -2.63605
lfemur 163.049 177.87 165.414
ltibia 23.3134
lfoot 6.04215 0.451827
ltoes 11.5172
596
root 0.688301 1.71909 18.1354 -440.736 -175.404 -717.374
lowerback -11.4024 2.70666 -1.93649
upperback -0.697717 3.80173 -4.80137
thorax 5.86866 1.73792 -3.35605
lowerneck -12.7118 -7.78195 -6.84836
upperneck 6.00156 -10.899 11.206
head 4.87639 -5.12845 3.63187
rclavicle -4.45278e-014 2.9271e-014
rhumerus -238.158 -208.282 99.6934
rradius 128.943
rwrist -6.62315
rhand -17.9744 15.004
rfingers 7.12502
rthumb 8.295 -14.8131
lclavicle -4.45278e-014 2.9271e-014
lhumerus -39.2698 -57.8524 73.3348
lradius 114.778
lwrist 8.33708
lhand -21.7309 -376.985
lfingers 7.12502
lthumb 4.66865 12.9433
rfemur -21.6969 -17.3027 13.5384
rtibia 31.18
rfoot 11.9361 7.91258
rtoes -1.50479
lfemur 162.984 177.741 165.328
ltibia 23.3568
lfoot 6.14196 0.316884
ltoes 11.6298
597
root 0.682657 1.71524 18.1347 -440.721 -175.36 -717.321
lowerback -11.4096 2.66368 -1.94281
upperback -0.70825 3.74653 -4.78335
thorax 5.85714 1.71156 -3.34227
lowerneck -12.5757 -7.77413 -6.92814
upperneck 5.89697 -10.868 11.2053
head 4.82318 -5.12012 3.65357
rclavicle 4.77083e-015 2.4699e-014
rhumerus -238.113 -208.439 99.4748
rradius 128.602
rwrist -6.73941
rhand -17.8236 14.8347
rfingers 7.12502
rthumb 8.44058 -14.9766
lclavicle 4.77083e-015 2.4699e-014
lhumerus -39.8018 -57.8593 73.9686
lradius 114.781
lwrist 8.68821
lhand -21.4947 -377.003
lfingers 7.12502
lthumb 4.89671 12.9206
rfemur -21.6076 -17.3402 13.415
rtibia 31.1081
rfoot 11.7977 7.39518
rtoes -0.559775
lfemur 162.913 177.605 165.246
ltibia 23.4016
lfoot 6.24687 0.179446
ltoes 11.6108
598
root 0.677313 1.71194 18.134 -440.705 -175.312 -717.259
lowerback -11.4183 2.62283 -1.94085
upperback -0.726414 3.69207 -4.79227
thorax 5.84093 1.68521 -3.36173
lowerneck -12.3838 -7.75694 -6.97148
upperneck 5.75979 -10.838 11.2314
head 4.75074 -5.11408 3.67997
rclavicle 0 3.42904e-015
rhumerus -238.034 -208.638 99.2066
rradius 128.251
rwrist -6.78978
rhand -17.7663 14.5964
rfingers 7.12502
rthumb 8.4959 -15.2127
lclavicle 0 3.42904e-015
lhumerus -40.2866 -57.927 74.5304
lradius 114.764
lwrist 9.08871
lhand -21.2661 -377.051
lfingers 7.12502
lthumb 5.11744 12.8669
rfemur -21.506 -17.3401 13.2784
rtibia 31.0321
rfoot 11.5844 6.82545
rtoes 0.353852
lfemur 162.836 177.463 165.159
ltibia 23.4466
lfoot 6.37086 0.0115363
ltoes 11.51
599
root 0.671617 1.70862 18.1337 -440.699 -175.267 -717.209
lowerback -11.425 2.5897 -1.94083
upperback -0.72383 3.64979 -4.79638
thorax 5.84562 1.66504 -3.37284
lowerneck -12.2685 -7.74731 -6.99096
upperneck 5.63994 -10.8139 11.219
head 4.69305 -5.10889 3.68739
rclavicle 1.74931e-014 -4.9895e-014
rhumerus -237.924 -208.857 98.9333
rradius 127.893
rwrist -6.87814
rhand -17.7904 14.3484
rfingers 7.12502
rthumb 8.47266 -15.4616
lclavicle 1.74931e-014 -4.9895e-014
lhumerus -40.6385 -57.9953 75.0068
lradius 114.714
lwrist 9.54797
lhand -20.9562 -377.091
lfingers 7.12502
lthumb 5.41661 12.8196
rfemur -21.4044 -17.4193 13.1476
rtibia 30.9549
rfoot 11.424 6.30842
rtoes 1.26073
lfemur 162.778 177.431 165.084
ltibia 23.493
lfoot 6.40851 -0.0460075
ltoes 11.5646
600
root 0.666911 1.7051 18.1338 -440.683 -175.219 -717.124
lowerback -11.442 2.54032 -1.96402
upperback -0.722921 3.58941 -4.79148
thorax 5.8514 1.63552 -3.36397
lowerneck -12.1765 -7.73705 -7.00569
upperneck 5.54564 -10.7885 11.1943
head 4.64591 -5.10194 3.68926
rclavicle -6.04305e-014 2.9122e-014
rhumerus -237.788 -209.094 98.6943
rradius 127.546
rwrist -6.99541
rhand -17.805 14.1194
rfingers 7.12502
rthumb 8.45857 -15.6913
lclavicle -6.04305e-014 2.9122e-014
lhumerus -40.9735 -58.0913 75.4775
lradius 114.668
lwrist 10.0601
lhand -20.6528 -377.128
lfingers 7.12502
lthumb 5.70953 12.7747
rfemur -21.3024 -17.4353 13.0159
rtibia 30.8758
rfoot 11.1966 5.71392
rtoes 2.3018
lfemur 162.7 177.276 164.999
ltibia 23.5398
lfoot 6.52929 -0.231362
ltoes 11.5033
